P3
4 4
255
255 255 255  192 192 192  128 128 128  64 64 64
255 255 255  192 192 192  128 128 128  64 64 64
255 255 255  192 192 192  128 128 128  64 64 64
255 255 255  192 192 192  128 128 128  64 64 64
