P3
4 4
255
255 255 255  192 192 192  128 128 128  64 64 64
192 192 192  128 128 128  64 64 64     0 0 0
128 128 128  64 64 64     0 0 0        64 64 64
64 64 64     0 0 0        64 64 64     128 128 128
