P3
10 10
255
255 255 255 255 255 255 255 255 255 255 255 255 255 255 255 255 255 255 255 255 255 255 255 255 255 255 255 255 255 255
255 255 255 255 255 255 200 200 200 255 255 255 255 255 255 255 255 255 255 255 255 255 255 255 255 255 255 255 255 255
255 255 255 255 200 200 100 100 100 200 200 255 255 255 255 255 255 255 255 255 255 255 255 255 255 255 255 255 255 255
255 255 255 200 100 100 50 50 50 100 100 200 255 255 255 255 255 255 255 255 255 255 255 255 255 255 255 255 255 255
255 255 200 100 50 50 0 0 0 50 50 100 200 255 255 255 255 255 255 255 255 255 255 255 255 255 255 255 255 255
255 255 200 100 50 50 0 0 0 50 50 100 200 255 255 255 255 255 255 255 255 255 255 255 255 255 255 255 255 255
255 255 255 200 100 100 50 50 50 100 100 200 255 255 255 255 255 255 255 255 255 255 255 255 255 255 255 255 255 255
255 255 255 255 200 200 100 100 100 200 200 255 255 255 255 255 255 255 255 255 255 255 255 255 255 255 255 255 255 255
255 255 255 255 255 255 200 200 200 255 255 255 255 255 255 255 255 255 255 255 255 255 255 255 255 255 255 255 255 255
255 255 255 255 255 255 255 255 255 255 255 255 255 255 255 255 255 255 255 255 255 255 255 255 255 255 255 255 255 255
