P3
3 2
255
10 20 30   100 200 150   120 130 255
255 254 253 25 55 20 170 180 190