P3
4 4
255
255 255 255  127 127 127  127 127 127  0 0 0 
255 255 255  127 127 127  127 127 127  0 0 0 
255 255 255  127 127 127  127 127 127  0 0 0 
255 255 255  127 127 127  127 127 127  0 0 0 
